<?xml version="1.0" encoding="utf-8" standalone="yes"?>
<!DOCTYPE svg PUBLIC "-//W3C//DTD SVG 1.1//EN" "http://www.w3.org/Graphics/SVG/1.1/DTD/svg11.dtd">
<svg width="660" height="276" viewBox="0 0 660 276" style="fill:none;stroke:none;fill-rule:evenodd;clip-rule:evenodd;stroke-linecap:round;stroke-linejoin:round;stroke-miterlimit:1.5;" version="1.1" xmlns="http://www.w3.org/2000/svg" xmlns:xlink="http://www.w3.org/1999/xlink"><style id="fontImports">@import url("https://fonts.googleapis.com/css2?family=Roboto:wght@400;700&amp;display=block");</style><g id="items" style="isolation: isolate"><g id="blend" style="mix-blend-mode:normal"><g id="g-root--1.line_sy_18k2dpgpa80e9-fill" data-item-order="999996261" data-item-id="-1.line_sy_18k2dpgpa80e9" data-item-class="Part Stroke" data-item-index="-1" data-renderer-id="0" transform="translate(569, 97.99609375)"></g><g id="g-root--1.line_sy_18k2dpgpa80e9-fill" data-item-order="999996261" data-item-id="-1.line_sy_18k2dpgpa80e9" data-item-class="Part Stroke" data-item-index="-1" data-renderer-id="0" transform="translate(569, 97.99609375)"></g><g id="g-root--1.vector_sy_zofdgkpa816y-fill" data-item-order="999996263" data-item-id="-1.vector_sy_zofdgkpa816y" data-item-class="Part Stroke" data-item-index="-1" data-renderer-id="0" transform="translate(14, 97.99609375)"></g><g id="g-root--1.vector_sy_zofdgkpa816y-fill" data-item-order="999996263" data-item-id="-1.vector_sy_zofdgkpa816y" data-item-class="Part Stroke" data-item-index="-1" data-renderer-id="0" transform="translate(14, 97.99609375)"></g><g id="g-root-6.cu-smallCircle_sy_dhybxgpa816o-fill" data-item-order="999996265" data-item-id="6.cu-smallCircle_sy_dhybxgpa816o" data-item-class="Part Indexed Stroke" data-item-index="6" data-renderer-id="0" transform="translate(563, 95)"></g><g id="g-root-6.cu-smallCircle_sy_dhybxgpa816o-fill" data-item-order="999996265" data-item-id="6.cu-smallCircle_sy_dhybxgpa816o" data-item-class="Part Indexed Stroke" data-item-index="6" data-renderer-id="0" transform="translate(563, 95)"></g><g id="g-root-5.cu-smallCircle_sy_hxru1wpa80ef-fill" data-item-order="999996267" data-item-id="5.cu-smallCircle_sy_hxru1wpa80ef" data-item-class="Part Indexed Stroke" data-item-index="5" data-renderer-id="0" transform="translate(467, 95)"></g><g id="g-root-5.cu-smallCircle_sy_hxru1wpa80ef-fill" data-item-order="999996267" data-item-id="5.cu-smallCircle_sy_hxru1wpa80ef" data-item-class="Part Indexed Stroke" data-item-index="5" data-renderer-id="0" transform="translate(467, 95)"></g><g id="g-root-4.cu-smallCircle_sy_mcyv38pa82ry-fill" data-item-order="999996269" data-item-id="4.cu-smallCircle_sy_mcyv38pa82ry" data-item-class="Part Indexed Stroke" data-item-index="4" data-renderer-id="0" transform="translate(371, 95)"></g><g id="g-root-4.cu-smallCircle_sy_mcyv38pa82ry-fill" data-item-order="999996269" data-item-id="4.cu-smallCircle_sy_mcyv38pa82ry" data-item-class="Part Indexed Stroke" data-item-index="4" data-renderer-id="0" transform="translate(371, 95)"></g><g id="g-root-3.cu-smallCircle_sy_mcyv38pa82rx-fill" data-item-order="999996271" data-item-id="3.cu-smallCircle_sy_mcyv38pa82rx" data-item-class="Part Indexed Stroke" data-item-index="3" data-renderer-id="0" transform="translate(275, 95)"></g><g id="g-root-3.cu-smallCircle_sy_mcyv38pa82rx-fill" data-item-order="999996271" data-item-id="3.cu-smallCircle_sy_mcyv38pa82rx" data-item-class="Part Indexed Stroke" data-item-index="3" data-renderer-id="0" transform="translate(275, 95)"></g><g id="g-root-2.cu-smallCircle_sy_v8lvc4pa81z8-fill" data-item-order="999996273" data-item-id="2.cu-smallCircle_sy_v8lvc4pa81z8" data-item-class="Part Indexed Stroke" data-item-index="2" data-renderer-id="0" transform="translate(179, 95)"></g><g id="g-root-2.cu-smallCircle_sy_v8lvc4pa81z8-fill" data-item-order="999996273" data-item-id="2.cu-smallCircle_sy_v8lvc4pa81z8" data-item-class="Part Indexed Stroke" data-item-index="2" data-renderer-id="0" transform="translate(179, 95)"></g><g id="g-root-1.cu-smallCircle_sy_zofdgkpa816z-fill" data-item-order="999996275" data-item-id="1.cu-smallCircle_sy_zofdgkpa816z" data-item-class="Part Indexed Indexed_1 Stroke" data-item-index="1" data-renderer-id="0" transform="translate(83, 95)"></g><g id="g-root-1.cu-smallCircle_sy_zofdgkpa816z-fill" data-item-order="999996275" data-item-id="1.cu-smallCircle_sy_zofdgkpa816z" data-item-class="Part Indexed Indexed_1 Stroke" data-item-index="1" data-renderer-id="0" transform="translate(83, 95)"></g><g id="g-root-1_zs67z8pam4n7-fill" data-item-order="1000000000" data-item-id="1_zs67z8pam4n7" data-item-class="Icon Stroke Indexed" data-item-index="5" data-renderer-id="0" transform="translate(446, 38)"></g><g id="g-root-tx_githisto_1lu9ur8paf3sz-fill" data-item-order="1000000000" data-item-id="tx_githisto_1lu9ur8paf3sz" data-item-class="Label Stroke" data-item-index="none" data-renderer-id="0" transform="translate(2, 194)"><g id="tx_githisto_1lu9ur8paf3sz-fill" stroke="none" fill="#000000"><g><text style="font: 20px Roboto, sans-serif; white-space: pre;" font-weight="20px" font-size="Roboto," font-family="sans-serif"><tspan x="28.74" y="52" dominant-baseline="ideographic">Created by Murilo Krominski</tspan></text></g></g></g><g id="g-root-1_zs67z8pam4n7-fill" data-item-order="1000000000" data-item-id="1_zs67z8pam4n7" data-item-class="Icon Stroke Indexed" data-item-index="5" data-renderer-id="0" transform="translate(446, 38)"></g><g id="g-root-urn_1q880ropanggd-fill" data-item-order="1000000000" data-item-id="urn_1q880ropanggd" data-item-class="Icon Stroke Indexed" data-item-index="3" data-renderer-id="0" transform="translate(254, 38)"></g><g id="g-root-urn_1q880ropanggd-fill" data-item-order="1000000000" data-item-id="urn_1q880ropanggd" data-item-class="Icon Stroke Indexed" data-item-index="3" data-renderer-id="0" transform="translate(254, 38)"></g><g id="g-root-wren_8zmxgkpanggf-fill" data-item-order="1000000000" data-item-id="wren_8zmxgkpanggf" data-item-class="Icon Stroke Indexed Indexed_1" data-item-index="1" data-renderer-id="0" transform="translate(62, 38)"></g><g id="g-root-wren_8zmxgkpanggf-fill" data-item-order="1000000000" data-item-id="wren_8zmxgkpanggf" data-item-class="Icon Stroke Indexed Indexed_1" data-item-index="1" data-renderer-id="0" transform="translate(62, 38)"></g><g id="g-root-tx_forcepus_6htk4pa82rm-fill" data-item-order="1000000000" data-item-id="tx_forcepus_6htk4pa82rm" data-item-class="Label Stroke Indexed" data-item-index="5" data-renderer-id="0" transform="translate(416, 2)"><g id="tx_forcepus_6htk4pa82rm-fill" stroke="none" fill="#000000"><g><text style="font: 20px Roboto, sans-serif; white-space: pre;" font-weight="20px" font-size="Roboto," font-family="sans-serif"><tspan x="14.08" y="34" dominant-baseline="ideographic">Force Push</tspan></text></g></g></g><g id="g-root-tx_forcepus_6htk4pa82rm-fill" data-item-order="1000000000" data-item-id="tx_forcepus_6htk4pa82rm" data-item-class="Label Stroke Indexed" data-item-index="5" data-renderer-id="0" transform="translate(416, 2)"><g id="tx_forcepus_6htk4pa82rm-fill" stroke="none" fill="#000000"><g><text style="font: 20px Roboto, sans-serif; white-space: pre;" font-weight="20px" font-size="Roboto," font-family="sans-serif"><tspan x="14.08" y="34" dominant-baseline="ideographic">Force Push</tspan></text></g></g></g><g id="g-root-tx_resethis_18lbbvopa82kk-fill" data-item-order="1000000000" data-item-id="tx_resethis_18lbbvopa82kk" data-item-class="Label Stroke Indexed" data-item-index="3" data-renderer-id="0" transform="translate(212, 2)"><g id="tx_resethis_18lbbvopa82kk-fill" stroke="none" fill="#000000"><g><text style="font: 20px Roboto, sans-serif; white-space: pre;" font-weight="20px" font-size="Roboto," font-family="sans-serif"><tspan x="16.56" y="34" dominant-baseline="ideographic">Reset History</tspan></text></g></g></g><g id="g-root-2_18gy09wpaniti-fill" data-item-order="1000000000" data-item-id="2_18gy09wpaniti" data-item-class="Icon Stroke Indexed" data-item-index="2" data-renderer-id="0" transform="translate(158, 110)"></g><g id="g-root-2_18gy09wpaniti-fill" data-item-order="1000000000" data-item-id="2_18gy09wpaniti" data-item-class="Icon Stroke Indexed" data-item-index="2" data-renderer-id="0" transform="translate(158, 110)"></g><g id="g-root-bran_m7clb8panhms-fill" data-item-order="1000000000" data-item-id="bran_m7clb8panhms" data-item-class="Icon Stroke Indexed" data-item-index="4" data-renderer-id="0" transform="translate(350, 110)"></g><g id="g-root-bran_m7clb8panhms-fill" data-item-order="1000000000" data-item-id="bran_m7clb8panhms" data-item-class="Icon Stroke Indexed" data-item-index="4" data-renderer-id="0" transform="translate(350, 110)"></g><g id="g-root-1_1hjg8h0pam2a2-fill" data-item-order="1000000000" data-item-id="1_1hjg8h0pam2a2" data-item-class="Icon Stroke Indexed" data-item-index="6" data-renderer-id="0" transform="translate(542, 110)"></g><g id="g-root-1_1hjg8h0pam2a2-fill" data-item-order="1000000000" data-item-id="1_1hjg8h0pam2a2" data-item-class="Icon Stroke Indexed" data-item-index="6" data-renderer-id="0" transform="translate(542, 110)"></g><g id="g-root-tx_resethis_18lbbvopa82kk-fill" data-item-order="1000000000" data-item-id="tx_resethis_18lbbvopa82kk" data-item-class="Label Stroke Indexed" data-item-index="3" data-renderer-id="0" transform="translate(212, 2)"><g id="tx_resethis_18lbbvopa82kk-fill" stroke="none" fill="#000000"><g><text style="font: 20px Roboto, sans-serif; white-space: pre;" font-weight="20px" font-size="Roboto," font-family="sans-serif"><tspan x="16.56" y="34" dominant-baseline="ideographic">Reset History</tspan></text></g></g></g><g id="g-root-tx_identify_meuackpa81se-fill" data-item-order="1000000000" data-item-id="tx_identify_meuackpa81se" data-item-class="Label Stroke Indexed Indexed_1" data-item-index="1" data-renderer-id="0" transform="translate(20, 2)"><g id="tx_identify_meuackpa81se-fill" stroke="none" fill="#000000"><g><text style="font: 20px Roboto, sans-serif; white-space: pre;" font-weight="20px" font-size="Roboto," font-family="sans-serif"><tspan x="17.09" y="34" dominant-baseline="ideographic">Identify Need</tspan></text></g></g></g><g id="g-root-tx_executes_vahalgpa80zp-fill" data-item-order="1000000000" data-item-id="tx_executes_vahalgpa80zp" data-item-class="Label Stroke Indexed" data-item-index="2" data-renderer-id="0" transform="translate(116, 170)"><g id="tx_executes_vahalgpa80zp-fill" stroke="none" fill="#000000"><g><text style="font: 20px Roboto, sans-serif; white-space: pre;" font-weight="20px" font-size="Roboto," font-family="sans-serif"><tspan x="12.52" y="34" dominant-baseline="ideographic">Execute Script</tspan></text></g></g></g><g id="g-root-tx_executes_vahalgpa80zp-fill" data-item-order="1000000000" data-item-id="tx_executes_vahalgpa80zp" data-item-class="Label Stroke Indexed" data-item-index="2" data-renderer-id="0" transform="translate(116, 170)"><g id="tx_executes_vahalgpa80zp-fill" stroke="none" fill="#000000"><g><text style="font: 20px Roboto, sans-serif; white-space: pre;" font-weight="20px" font-size="Roboto," font-family="sans-serif"><tspan x="12.52" y="34" dominant-baseline="ideographic">Execute Script</tspan></text></g></g></g><g id="g-root-tx_renamebr_1lwru90pa80zn-fill" data-item-order="1000000000" data-item-id="tx_renamebr_1lwru90pa80zn" data-item-class="Label Stroke Indexed" data-item-index="4" data-renderer-id="0" transform="translate(332, 170)"><g id="tx_renamebr_1lwru90pa80zn-fill" stroke="none" fill="#000000"><g><text style="font: 20px Roboto, sans-serif; white-space: pre;" font-weight="20px" font-size="Roboto," font-family="sans-serif"><tspan x="13.04" y="34" dominant-baseline="ideographic">Rename </tspan><tspan x="18.41" y="58" dominant-baseline="ideographic">Branch</tspan></text></g></g></g><g id="g-root-tx_identify_meuackpa81se-fill" data-item-order="1000000000" data-item-id="tx_identify_meuackpa81se" data-item-class="Label Stroke Indexed Indexed_1" data-item-index="1" data-renderer-id="0" transform="translate(20, 2)"><g id="tx_identify_meuackpa81se-fill" stroke="none" fill="#000000"><g><text style="font: 20px Roboto, sans-serif; white-space: pre;" font-weight="20px" font-size="Roboto," font-family="sans-serif"><tspan x="17.09" y="34" dominant-baseline="ideographic">Identify Need</tspan></text></g></g></g><g id="g-root-tx_complete_dhybxgpa816p-fill" data-item-order="1000000000" data-item-id="tx_complete_dhybxgpa816p" data-item-class="Label Stroke Indexed" data-item-index="6" data-renderer-id="0" transform="translate(518, 170)"><g id="tx_complete_dhybxgpa816p-fill" stroke="none" fill="#000000"><g><text style="font: 20px Roboto, sans-serif; white-space: pre;" font-weight="20px" font-size="Roboto," font-family="sans-serif"><tspan x="12.64" y="34" dominant-baseline="ideographic">Complete </tspan><tspan x="19.38" y="58" dominant-baseline="ideographic">Process</tspan></text></g></g></g><g id="g-root-tx_complete_dhybxgpa816p-fill" data-item-order="1000000000" data-item-id="tx_complete_dhybxgpa816p" data-item-class="Label Stroke Indexed" data-item-index="6" data-renderer-id="0" transform="translate(518, 170)"><g id="tx_complete_dhybxgpa816p-fill" stroke="none" fill="#000000"><g><text style="font: 20px Roboto, sans-serif; white-space: pre;" font-weight="20px" font-size="Roboto," font-family="sans-serif"><tspan x="12.64" y="34" dominant-baseline="ideographic">Complete </tspan><tspan x="19.38" y="58" dominant-baseline="ideographic">Process</tspan></text></g></g></g><g id="g-root-tx_renamebr_1lwru90pa80zn-fill" data-item-order="1000000000" data-item-id="tx_renamebr_1lwru90pa80zn" data-item-class="Label Stroke Indexed" data-item-index="4" data-renderer-id="0" transform="translate(332, 170)"><g id="tx_renamebr_1lwru90pa80zn-fill" stroke="none" fill="#000000"><g><text style="font: 20px Roboto, sans-serif; white-space: pre;" font-weight="20px" font-size="Roboto," font-family="sans-serif"><tspan x="13.04" y="34" dominant-baseline="ideographic">Rename </tspan><tspan x="18.41" y="58" dominant-baseline="ideographic">Branch</tspan></text></g></g></g><g id="g-root--1.line_sy_18k2dpgpa80e9-stroke" data-item-order="999996261" data-item-id="-1.line_sy_18k2dpgpa80e9" data-item-class="Part Stroke" data-item-index="-1" data-renderer-id="0" transform="translate(569, 97.99609375)"><g id="-1.line_sy_18k2dpgpa80e9-stroke" fill="none" stroke-linecap="round" stroke-linejoin="round" stroke-miterlimit="4" stroke="#4F92FF" stroke-width="2"><g><path d="M 77 10.003906L 10 10.003906"></path><path d="M 71 16.503906L 77.5 10.003906L 71 3.503906" stroke-dasharray="none"></path></g></g></g><g id="g-root--1.line_sy_18k2dpgpa80e9-stroke" data-item-order="999996261" data-item-id="-1.line_sy_18k2dpgpa80e9" data-item-class="Part Stroke" data-item-index="-1" data-renderer-id="0" transform="translate(569, 97.99609375)"><g id="-1.line_sy_18k2dpgpa80e9-stroke" fill="none" stroke-linecap="round" stroke-linejoin="round" stroke-miterlimit="4" stroke="#4F92FF" stroke-width="2"><g><path d="M 77 10.003906L 10 10.003906"></path><path d="M 71 16.503906L 77.5 10.003906L 71 3.503906" stroke-dasharray="none"></path></g></g></g><g id="g-root--1.vector_sy_zofdgkpa816y-stroke" data-item-order="999996263" data-item-id="-1.vector_sy_zofdgkpa816y" data-item-class="Part Stroke" data-item-index="-1" data-renderer-id="0" transform="translate(14, 97.99609375)"><g id="-1.vector_sy_zofdgkpa816y-stroke" fill="none" stroke-linecap="round" stroke-linejoin="round" stroke-miterlimit="4" stroke="#4F92FF" stroke-width="2"><g><path d="M 559 10L 469 10M 463 10L 373 10M 367 10L 277 10M 271 10L 181 10M 174.9976 10L 84.9976 10M 78.9976 10L 10 10"></path></g></g></g><g id="g-root--1.vector_sy_zofdgkpa816y-stroke" data-item-order="999996263" data-item-id="-1.vector_sy_zofdgkpa816y" data-item-class="Part Stroke" data-item-index="-1" data-renderer-id="0" transform="translate(14, 97.99609375)"><g id="-1.vector_sy_zofdgkpa816y-stroke" fill="none" stroke-linecap="round" stroke-linejoin="round" stroke-miterlimit="4" stroke="#4F92FF" stroke-width="2"><g><path d="M 559 10L 469 10M 463 10L 373 10M 367 10L 277 10M 271 10L 181 10M 174.9976 10L 84.9976 10M 78.9976 10L 10 10"></path></g></g></g><g id="g-root-6.cu-smallCircle_sy_dhybxgpa816o-stroke" data-item-order="999996265" data-item-id="6.cu-smallCircle_sy_dhybxgpa816o" data-item-class="Part Indexed Stroke" data-item-index="6" data-renderer-id="0" transform="translate(563, 95)"><g id="6.cu-smallCircle_sy_dhybxgpa816o-stroke" fill="none" stroke-linecap="round" stroke-linejoin="round" stroke-miterlimit="4" stroke="#4F92FF" stroke-width="2"><g><path d="M 16 13C 16 14.6569 14.6569 16 13 16C 11.3431 16 10 14.6569 10 13C 10 11.3431 11.3431 10 13 10C 14.6569 10 16 11.3431 16 13Z"></path></g></g></g><g id="g-root-6.cu-smallCircle_sy_dhybxgpa816o-stroke" data-item-order="999996265" data-item-id="6.cu-smallCircle_sy_dhybxgpa816o" data-item-class="Part Indexed Stroke" data-item-index="6" data-renderer-id="0" transform="translate(563, 95)"><g id="6.cu-smallCircle_sy_dhybxgpa816o-stroke" fill="none" stroke-linecap="round" stroke-linejoin="round" stroke-miterlimit="4" stroke="#4F92FF" stroke-width="2"><g><path d="M 16 13C 16 14.6569 14.6569 16 13 16C 11.3431 16 10 14.6569 10 13C 10 11.3431 11.3431 10 13 10C 14.6569 10 16 11.3431 16 13Z"></path></g></g></g><g id="g-root-5.cu-smallCircle_sy_hxru1wpa80ef-stroke" data-item-order="999996267" data-item-id="5.cu-smallCircle_sy_hxru1wpa80ef" data-item-class="Part Indexed Stroke" data-item-index="5" data-renderer-id="0" transform="translate(467, 95)"><g id="5.cu-smallCircle_sy_hxru1wpa80ef-stroke" fill="none" stroke-linecap="round" stroke-linejoin="round" stroke-miterlimit="4" stroke="#4F92FF" stroke-width="2"><g><path d="M 16 13C 16 14.6569 14.6569 16 13 16C 11.3431 16 10 14.6569 10 13C 10 11.3431 11.3431 10 13 10C 14.6569 10 16 11.3431 16 13Z"></path></g></g></g><g id="g-root-5.cu-smallCircle_sy_hxru1wpa80ef-stroke" data-item-order="999996267" data-item-id="5.cu-smallCircle_sy_hxru1wpa80ef" data-item-class="Part Indexed Stroke" data-item-index="5" data-renderer-id="0" transform="translate(467, 95)"><g id="5.cu-smallCircle_sy_hxru1wpa80ef-stroke" fill="none" stroke-linecap="round" stroke-linejoin="round" stroke-miterlimit="4" stroke="#4F92FF" stroke-width="2"><g><path d="M 16 13C 16 14.6569 14.6569 16 13 16C 11.3431 16 10 14.6569 10 13C 10 11.3431 11.3431 10 13 10C 14.6569 10 16 11.3431 16 13Z"></path></g></g></g><g id="g-root-4.cu-smallCircle_sy_mcyv38pa82ry-stroke" data-item-order="999996269" data-item-id="4.cu-smallCircle_sy_mcyv38pa82ry" data-item-class="Part Indexed Stroke" data-item-index="4" data-renderer-id="0" transform="translate(371, 95)"><g id="4.cu-smallCircle_sy_mcyv38pa82ry-stroke" fill="none" stroke-linecap="round" stroke-linejoin="round" stroke-miterlimit="4" stroke="#4F92FF" stroke-width="2"><g><path d="M 16 13C 16 14.6569 14.6569 16 13 16C 11.3431 16 10 14.6569 10 13C 10 11.3431 11.3431 10 13 10C 14.6569 10 16 11.3431 16 13Z"></path></g></g></g><g id="g-root-4.cu-smallCircle_sy_mcyv38pa82ry-stroke" data-item-order="999996269" data-item-id="4.cu-smallCircle_sy_mcyv38pa82ry" data-item-class="Part Indexed Stroke" data-item-index="4" data-renderer-id="0" transform="translate(371, 95)"><g id="4.cu-smallCircle_sy_mcyv38pa82ry-stroke" fill="none" stroke-linecap="round" stroke-linejoin="round" stroke-miterlimit="4" stroke="#4F92FF" stroke-width="2"><g><path d="M 16 13C 16 14.6569 14.6569 16 13 16C 11.3431 16 10 14.6569 10 13C 10 11.3431 11.3431 10 13 10C 14.6569 10 16 11.3431 16 13Z"></path></g></g></g><g id="g-root-3.cu-smallCircle_sy_mcyv38pa82rx-stroke" data-item-order="999996271" data-item-id="3.cu-smallCircle_sy_mcyv38pa82rx" data-item-class="Part Indexed Stroke" data-item-index="3" data-renderer-id="0" transform="translate(275, 95)"><g id="3.cu-smallCircle_sy_mcyv38pa82rx-stroke" fill="none" stroke-linecap="round" stroke-linejoin="round" stroke-miterlimit="4" stroke="#4F92FF" stroke-width="2"><g><path d="M 16 13C 16 14.6569 14.6569 16 13 16C 11.3431 16 10 14.6569 10 13C 10 11.3431 11.3431 10 13 10C 14.6569 10 16 11.3431 16 13Z"></path></g></g></g><g id="g-root-3.cu-smallCircle_sy_mcyv38pa82rx-stroke" data-item-order="999996271" data-item-id="3.cu-smallCircle_sy_mcyv38pa82rx" data-item-class="Part Indexed Stroke" data-item-index="3" data-renderer-id="0" transform="translate(275, 95)"><g id="3.cu-smallCircle_sy_mcyv38pa82rx-stroke" fill="none" stroke-linecap="round" stroke-linejoin="round" stroke-miterlimit="4" stroke="#4F92FF" stroke-width="2"><g><path d="M 16 13C 16 14.6569 14.6569 16 13 16C 11.3431 16 10 14.6569 10 13C 10 11.3431 11.3431 10 13 10C 14.6569 10 16 11.3431 16 13Z"></path></g></g></g><g id="g-root-2.cu-smallCircle_sy_v8lvc4pa81z8-stroke" data-item-order="999996273" data-item-id="2.cu-smallCircle_sy_v8lvc4pa81z8" data-item-class="Part Indexed Stroke" data-item-index="2" data-renderer-id="0" transform="translate(179, 95)"><g id="2.cu-smallCircle_sy_v8lvc4pa81z8-stroke" fill="none" stroke-linecap="round" stroke-linejoin="round" stroke-miterlimit="4" stroke="#4F92FF" stroke-width="2"><g><path d="M 16 13C 16 14.6569 14.6569 16 13 16C 11.3431 16 10 14.6569 10 13C 10 11.3431 11.3431 10 13 10C 14.6569 10 16 11.3431 16 13Z"></path></g></g></g><g id="g-root-2.cu-smallCircle_sy_v8lvc4pa81z8-stroke" data-item-order="999996273" data-item-id="2.cu-smallCircle_sy_v8lvc4pa81z8" data-item-class="Part Indexed Stroke" data-item-index="2" data-renderer-id="0" transform="translate(179, 95)"><g id="2.cu-smallCircle_sy_v8lvc4pa81z8-stroke" fill="none" stroke-linecap="round" stroke-linejoin="round" stroke-miterlimit="4" stroke="#4F92FF" stroke-width="2"><g><path d="M 16 13C 16 14.6569 14.6569 16 13 16C 11.3431 16 10 14.6569 10 13C 10 11.3431 11.3431 10 13 10C 14.6569 10 16 11.3431 16 13Z"></path></g></g></g><g id="g-root-1.cu-smallCircle_sy_zofdgkpa816z-stroke" data-item-order="999996275" data-item-id="1.cu-smallCircle_sy_zofdgkpa816z" data-item-class="Part Indexed Indexed_1 Stroke" data-item-index="1" data-renderer-id="0" transform="translate(83, 95)"><g id="1.cu-smallCircle_sy_zofdgkpa816z-stroke" fill="none" stroke-linecap="round" stroke-linejoin="round" stroke-miterlimit="4" stroke="#4F92FF" stroke-width="2"><g><path d="M 16 13C 16 14.6569 14.6569 16 13 16C 11.3431 16 10 14.6569 10 13C 10 11.3431 11.3431 10 13 10C 14.6569 10 16 11.3431 16 13Z"></path></g></g></g><g id="g-root-1.cu-smallCircle_sy_zofdgkpa816z-stroke" data-item-order="999996275" data-item-id="1.cu-smallCircle_sy_zofdgkpa816z" data-item-class="Part Indexed Indexed_1 Stroke" data-item-index="1" data-renderer-id="0" transform="translate(83, 95)"><g id="1.cu-smallCircle_sy_zofdgkpa816z-stroke" fill="none" stroke-linecap="round" stroke-linejoin="round" stroke-miterlimit="4" stroke="#4F92FF" stroke-width="2"><g><path d="M 16 13C 16 14.6569 14.6569 16 13 16C 11.3431 16 10 14.6569 10 13C 10 11.3431 11.3431 10 13 10C 14.6569 10 16 11.3431 16 13Z"></path></g></g></g><g id="g-root-1_zs67z8pam4n7-stroke" data-item-order="1000000000" data-item-id="1_zs67z8pam4n7" data-item-class="Icon Stroke Indexed" data-item-index="5" data-renderer-id="0" transform="translate(446, 38)"><g id="1_zs67z8pam4n7-stroke" fill="none" stroke-linecap="round" stroke-linejoin="round" stroke-miterlimit="4" stroke="#FFE60A" stroke-width="2"><g><path d="M 15.142858 28.857143L 52.857143 28.857143C 52.857143 28.857143 56.285713 28.857143 56.285713 32.285713L 56.285713 52.857143C 56.285713 52.857143 56.285713 56.285713 52.857143 56.285713L 15.142858 56.285713C 15.142858 56.285713 11.714286 56.285713 11.714286 52.857143L 11.714286 32.285713C 11.714286 32.285713 11.714286 28.857143 15.142858 28.857143M 34 28.857143L 34 11.714286M 39.142857 42.57143C 39.142857 45.411751 41.445396 47.714287 44.285713 47.714287C 47.126038 47.714287 49.428574 45.411751 49.428574 42.57143C 49.428574 39.731106 47.126038 37.428574 44.285713 37.428574C 41.445396 37.428574 39.142857 39.731106 39.142857 42.57143M 18.571428 42.57143C 18.571428 45.411751 20.873964 47.714287 23.714287 47.714287C 26.554607 47.714287 28.857143 45.411751 28.857143 42.57143C 28.857143 39.731106 26.554607 37.428574 23.714287 37.428574C 20.873964 37.428574 18.571428 39.731106 18.571428 42.57143"></path></g></g></g><g id="g-root-tx_githisto_1lu9ur8paf3sz-stroke" data-item-order="1000000000" data-item-id="tx_githisto_1lu9ur8paf3sz" data-item-class="Label Stroke" data-item-index="none" data-renderer-id="0" transform="translate(2, 194)"></g><g id="g-root-1_zs67z8pam4n7-stroke" data-item-order="1000000000" data-item-id="1_zs67z8pam4n7" data-item-class="Icon Stroke Indexed" data-item-index="5" data-renderer-id="0" transform="translate(446, 38)"><g id="1_zs67z8pam4n7-stroke" fill="none" stroke-linecap="round" stroke-linejoin="round" stroke-miterlimit="4" stroke="#FFE60A" stroke-width="2"><g><path d="M 15.142858 28.857143L 52.857143 28.857143C 52.857143 28.857143 56.285713 28.857143 56.285713 32.285713L 56.285713 52.857143C 56.285713 52.857143 56.285713 56.285713 52.857143 56.285713L 15.142858 56.285713C 15.142858 56.285713 11.714286 56.285713 11.714286 52.857143L 11.714286 32.285713C 11.714286 32.285713 11.714286 28.857143 15.142858 28.857143M 34 28.857143L 34 11.714286M 39.142857 42.57143C 39.142857 45.411751 41.445396 47.714287 44.285713 47.714287C 47.126038 47.714287 49.428574 45.411751 49.428574 42.57143C 49.428574 39.731106 47.126038 37.428574 44.285713 37.428574C 41.445396 37.428574 39.142857 39.731106 39.142857 42.57143M 18.571428 42.57143C 18.571428 45.411751 20.873964 47.714287 23.714287 47.714287C 26.554607 47.714287 28.857143 45.411751 28.857143 42.57143C 28.857143 39.731106 26.554607 37.428574 23.714287 37.428574C 20.873964 37.428574 18.571428 39.731106 18.571428 42.57143"></path></g></g></g><g id="g-root-urn_1q880ropanggd-stroke" data-item-order="1000000000" data-item-id="urn_1q880ropanggd" data-item-class="Icon Stroke Indexed" data-item-index="3" data-renderer-id="0" transform="translate(254, 38)"><g id="urn_1q880ropanggd-stroke" fill="none" stroke-linecap="round" stroke-linejoin="round" stroke-miterlimit="4" stroke="#44E095" stroke-width="2"><g><path d="M 42 53L 26 53C 24.895432 53 24 53.895432 24 55C 24 56.104568 24.895432 57 26 57L 42 57C 43.104568 57 44 56.104568 44 55C 44 53.895432 43.104568 53 42 53ZM 37 53C 45.284 53 53 42.284 53 34C 53 28.040001 49.366001 23.936001 42.860001 22.1C 40.577354 21.454865 39.000957 19.372063 39 17C 39 15.895431 39.895432 15 41 15L 43 15C 44.104568 15 45 14.104569 45 13C 45 11.895431 44.104568 11 43 11L 25 11C 23.895432 11 23 11.895431 23 13C 23 14.104569 23.895432 15 25 15L 27 15C 28.10457 15 29 15.895431 29 17C 29.001076 19.372746 27.423857 21.456635 25.139999 22.099998C 18.633999 23.936001 15 28.040001 15 34C 15 42.284 22.716 53 31 53M 15 34L 15 21C 15 18.790861 16.790861 17 19 17C 21.209139 17 23 18.790861 23 21L 23 22.810001M 53 34L 53 21C 53 18.790861 51.209141 17 49 17C 46.790859 17 45 18.790861 45 21L 45 22.810001M 20.214001 47L 47.784 47M 19.195999 25L 48.804001 25M 24 32C 24 33.656853 25.343147 35 27 35C 28.656855 35 30 33.656853 30 32C 30 30.343147 28.656855 29 27 29C 25.343147 29 24 30.343147 24 32ZM 27 35L 27 40M 24 43L 27 40L 30 43M 23 38L 27 37M 27 37L 31 38M 38 32C 38 33.656853 39.343147 35 41 35C 42.656857 35 44 33.656853 44 32C 44 30.343147 42.656857 29 41 29C 39.343147 29 38 30.343147 38 32ZM 41 35L 41 40M 44 43L 41 40L 38 43M 45 38L 41 37M 41 37L 37 38"></path></g></g></g><g id="g-root-urn_1q880ropanggd-stroke" data-item-order="1000000000" data-item-id="urn_1q880ropanggd" data-item-class="Icon Stroke Indexed" data-item-index="3" data-renderer-id="0" transform="translate(254, 38)"><g id="urn_1q880ropanggd-stroke" fill="none" stroke-linecap="round" stroke-linejoin="round" stroke-miterlimit="4" stroke="#44E095" stroke-width="2"><g><path d="M 42 53L 26 53C 24.895432 53 24 53.895432 24 55C 24 56.104568 24.895432 57 26 57L 42 57C 43.104568 57 44 56.104568 44 55C 44 53.895432 43.104568 53 42 53ZM 37 53C 45.284 53 53 42.284 53 34C 53 28.040001 49.366001 23.936001 42.860001 22.1C 40.577354 21.454865 39.000957 19.372063 39 17C 39 15.895431 39.895432 15 41 15L 43 15C 44.104568 15 45 14.104569 45 13C 45 11.895431 44.104568 11 43 11L 25 11C 23.895432 11 23 11.895431 23 13C 23 14.104569 23.895432 15 25 15L 27 15C 28.10457 15 29 15.895431 29 17C 29.001076 19.372746 27.423857 21.456635 25.139999 22.099998C 18.633999 23.936001 15 28.040001 15 34C 15 42.284 22.716 53 31 53M 15 34L 15 21C 15 18.790861 16.790861 17 19 17C 21.209139 17 23 18.790861 23 21L 23 22.810001M 53 34L 53 21C 53 18.790861 51.209141 17 49 17C 46.790859 17 45 18.790861 45 21L 45 22.810001M 20.214001 47L 47.784 47M 19.195999 25L 48.804001 25M 24 32C 24 33.656853 25.343147 35 27 35C 28.656855 35 30 33.656853 30 32C 30 30.343147 28.656855 29 27 29C 25.343147 29 24 30.343147 24 32ZM 27 35L 27 40M 24 43L 27 40L 30 43M 23 38L 27 37M 27 37L 31 38M 38 32C 38 33.656853 39.343147 35 41 35C 42.656857 35 44 33.656853 44 32C 44 30.343147 42.656857 29 41 29C 39.343147 29 38 30.343147 38 32ZM 41 35L 41 40M 44 43L 41 40L 38 43M 45 38L 41 37M 41 37L 37 38"></path></g></g></g><g id="g-root-wren_8zmxgkpanggf-stroke" data-item-order="1000000000" data-item-id="wren_8zmxgkpanggf" data-item-class="Icon Stroke Indexed Indexed_1" data-item-index="1" data-renderer-id="0" transform="translate(62, 38)"><g id="wren_8zmxgkpanggf-stroke" fill="none" stroke-linecap="round" stroke-linejoin="round" stroke-miterlimit="4" stroke="#4F92FF" stroke-width="2"><g><path d="M 43.279999 18.883999C 43.281204 15.833967 41.780716 12.978857 39.267998 11.25C 38.948742 11.044404 38.542698 11.029549 38.20927 11.211267C 37.875843 11.392985 37.668255 11.74227 37.667999 12.122L 37.667999 16.306C 37.667999 18.294226 36.056225 19.906 34.068001 19.906L 34.068001 19.906C 32.079773 19.906 30.468 18.294226 30.468 16.306L 30.468 12.048C 30.469334 11.667416 30.262676 11.316499 29.929201 11.133087C 29.595724 10.949676 29.188698 10.963066 28.867998 11.168C 26.018612 13.067135 24.447918 16.38213 24.782761 19.790005C 25.117603 23.197878 27.303471 26.143768 30.468 27.452L 30.468 45L 37.66 45L 37.66 27.4C 41.066868 25.939541 43.276878 22.59071 43.279999 18.883999ZM 20 57L 48 57M 33 53L 33 57M 11 45L 57 45M 48 17L 54 17C 55.656857 17 57 18.343147 57 20L 57 50C 57 51.656857 55.656857 53 54 53L 14 53C 12.343145 53 11 51.656857 11 50L 11 20C 11 18.343147 12.343145 17 14 17L 20 17"></path></g></g></g><g id="g-root-wren_8zmxgkpanggf-stroke" data-item-order="1000000000" data-item-id="wren_8zmxgkpanggf" data-item-class="Icon Stroke Indexed Indexed_1" data-item-index="1" data-renderer-id="0" transform="translate(62, 38)"><g id="wren_8zmxgkpanggf-stroke" fill="none" stroke-linecap="round" stroke-linejoin="round" stroke-miterlimit="4" stroke="#4F92FF" stroke-width="2"><g><path d="M 43.279999 18.883999C 43.281204 15.833967 41.780716 12.978857 39.267998 11.25C 38.948742 11.044404 38.542698 11.029549 38.20927 11.211267C 37.875843 11.392985 37.668255 11.74227 37.667999 12.122L 37.667999 16.306C 37.667999 18.294226 36.056225 19.906 34.068001 19.906L 34.068001 19.906C 32.079773 19.906 30.468 18.294226 30.468 16.306L 30.468 12.048C 30.469334 11.667416 30.262676 11.316499 29.929201 11.133087C 29.595724 10.949676 29.188698 10.963066 28.867998 11.168C 26.018612 13.067135 24.447918 16.38213 24.782761 19.790005C 25.117603 23.197878 27.303471 26.143768 30.468 27.452L 30.468 45L 37.66 45L 37.66 27.4C 41.066868 25.939541 43.276878 22.59071 43.279999 18.883999ZM 20 57L 48 57M 33 53L 33 57M 11 45L 57 45M 48 17L 54 17C 55.656857 17 57 18.343147 57 20L 57 50C 57 51.656857 55.656857 53 54 53L 14 53C 12.343145 53 11 51.656857 11 50L 11 20C 11 18.343147 12.343145 17 14 17L 20 17"></path></g></g></g><g id="g-root-tx_forcepus_6htk4pa82rm-stroke" data-item-order="1000000000" data-item-id="tx_forcepus_6htk4pa82rm" data-item-class="Label Stroke Indexed" data-item-index="5" data-renderer-id="0" transform="translate(416, 2)"></g><g id="g-root-tx_forcepus_6htk4pa82rm-stroke" data-item-order="1000000000" data-item-id="tx_forcepus_6htk4pa82rm" data-item-class="Label Stroke Indexed" data-item-index="5" data-renderer-id="0" transform="translate(416, 2)"></g><g id="g-root-tx_resethis_18lbbvopa82kk-stroke" data-item-order="1000000000" data-item-id="tx_resethis_18lbbvopa82kk" data-item-class="Label Stroke Indexed" data-item-index="3" data-renderer-id="0" transform="translate(212, 2)"></g><g id="g-root-2_18gy09wpaniti-stroke" data-item-order="1000000000" data-item-id="2_18gy09wpaniti" data-item-class="Icon Stroke Indexed" data-item-index="2" data-renderer-id="0" transform="translate(158, 110)"><g id="2_18gy09wpaniti-stroke" fill="none" stroke-linecap="round" stroke-linejoin="round" stroke-miterlimit="4" stroke="#1AC6FF" stroke-width="2"><g><path d="M 11.714286 56.285713L 18.571428 49.428574L 11.714286 42.57143M 18.571428 35.714287L 18.571428 15.142858C 18.571428 13.24931 20.106453 11.714286 22 11.714286L 39.142857 11.714286L 56.285713 28.857143L 56.285713 52.857143C 56.285713 54.750694 54.750694 56.285713 52.857143 56.285713L 44.285713 56.285713M 39.142857 11.714286L 39.142857 28.857143L 56.285713 28.857143M 25.428572 56.285713L 35.714287 56.285713"></path></g></g></g><g id="g-root-2_18gy09wpaniti-stroke" data-item-order="1000000000" data-item-id="2_18gy09wpaniti" data-item-class="Icon Stroke Indexed" data-item-index="2" data-renderer-id="0" transform="translate(158, 110)"><g id="2_18gy09wpaniti-stroke" fill="none" stroke-linecap="round" stroke-linejoin="round" stroke-miterlimit="4" stroke="#1AC6FF" stroke-width="2"><g><path d="M 11.714286 56.285713L 18.571428 49.428574L 11.714286 42.57143M 18.571428 35.714287L 18.571428 15.142858C 18.571428 13.24931 20.106453 11.714286 22 11.714286L 39.142857 11.714286L 56.285713 28.857143L 56.285713 52.857143C 56.285713 54.750694 54.750694 56.285713 52.857143 56.285713L 44.285713 56.285713M 39.142857 11.714286L 39.142857 28.857143L 56.285713 28.857143M 25.428572 56.285713L 35.714287 56.285713"></path></g></g></g><g id="g-root-bran_m7clb8panhms-stroke" data-item-order="1000000000" data-item-id="bran_m7clb8panhms" data-item-class="Icon Stroke Indexed" data-item-index="4" data-renderer-id="0" transform="translate(350, 110)"><g id="bran_m7clb8panhms-stroke" fill="none" stroke-linecap="round" stroke-linejoin="round" stroke-miterlimit="4" stroke="#A8DD38" stroke-width="2"><g><path d="M 17.644001 17.133999C 17.643053 20.522383 20.389614 23.269712 23.778 23.269712C 27.166382 23.269712 29.912945 20.522383 29.911999 17.133999C 29.912945 13.745616 27.166382 10.998286 23.778 10.998286C 20.389614 10.998286 17.643053 13.745616 17.643999 17.133999M 17.644001 50.866001C 17.643053 54.254379 20.389614 57.001709 23.778 57.001709C 27.166382 57.001709 29.912945 54.254379 29.911999 50.865997C 29.912945 47.477615 27.166382 44.730286 23.778 44.730286C 20.389614 44.730286 17.643053 47.477615 17.643999 50.865997M 38.087997 23.265999C 38.087051 26.654383 40.833614 29.401712 44.221996 29.401712C 47.610382 29.401712 50.356945 26.654383 50.355999 23.265999C 50.356945 19.877617 47.610382 17.130285 44.221996 17.130285C 40.833614 17.130285 38.087051 19.877617 38.087997 23.265999M 23.778 23.265999L 23.778 44.734001M 44.222 29.4C 44.222004 33.916588 40.560585 37.578003 36.043999 37.578003L 29.912001 37.577999C 26.524284 37.577999 23.778 40.324284 23.778 43.711998"></path></g></g></g><g id="g-root-bran_m7clb8panhms-stroke" data-item-order="1000000000" data-item-id="bran_m7clb8panhms" data-item-class="Icon Stroke Indexed" data-item-index="4" data-renderer-id="0" transform="translate(350, 110)"><g id="bran_m7clb8panhms-stroke" fill="none" stroke-linecap="round" stroke-linejoin="round" stroke-miterlimit="4" stroke="#A8DD38" stroke-width="2"><g><path d="M 17.644001 17.133999C 17.643053 20.522383 20.389614 23.269712 23.778 23.269712C 27.166382 23.269712 29.912945 20.522383 29.911999 17.133999C 29.912945 13.745616 27.166382 10.998286 23.778 10.998286C 20.389614 10.998286 17.643053 13.745616 17.643999 17.133999M 17.644001 50.866001C 17.643053 54.254379 20.389614 57.001709 23.778 57.001709C 27.166382 57.001709 29.912945 54.254379 29.911999 50.865997C 29.912945 47.477615 27.166382 44.730286 23.778 44.730286C 20.389614 44.730286 17.643053 47.477615 17.643999 50.865997M 38.087997 23.265999C 38.087051 26.654383 40.833614 29.401712 44.221996 29.401712C 47.610382 29.401712 50.356945 26.654383 50.355999 23.265999C 50.356945 19.877617 47.610382 17.130285 44.221996 17.130285C 40.833614 17.130285 38.087051 19.877617 38.087997 23.265999M 23.778 23.265999L 23.778 44.734001M 44.222 29.4C 44.222004 33.916588 40.560585 37.578003 36.043999 37.578003L 29.912001 37.577999C 26.524284 37.577999 23.778 40.324284 23.778 43.711998"></path></g></g></g><g id="g-root-1_1hjg8h0pam2a2-stroke" data-item-order="1000000000" data-item-id="1_1hjg8h0pam2a2" data-item-class="Icon Stroke Indexed" data-item-index="6" data-renderer-id="0" transform="translate(542, 110)"><g id="1_1hjg8h0pam2a2-stroke" fill="none" stroke-linecap="round" stroke-linejoin="round" stroke-miterlimit="4" stroke="#F99539" stroke-width="2"><g><path d="M 41 49L 15 49M 28 52.5C 28.276142 52.5 28.5 52.723858 28.5 53L 28.5 53C 28.5 53.276142 28.276142 53.5 28 53.5L 28 53.5C 27.723858 53.5 27.5 53.276142 27.5 53L 27.5 53C 27.5 52.723858 27.723858 52.5 28 52.5M 28 52.5L 28 52.5M 41 41L 41 53C 41 55.209141 39.209137 57 37 57L 19 57C 16.790861 57 15 55.209141 15 53L 15 15C 15 12.790861 16.790861 11 19 11L 30 11M 29 23C 29 29.627417 34.372581 35 41 35C 47.627419 35 53 29.627417 53 23C 53 16.372583 47.627419 11 41 11C 34.372581 11 29 16.372583 29 23ZM 46.348 19.512001L 40.548 27.257999C 40.286514 27.605349 39.887512 27.822548 39.453854 27.853605C 39.020195 27.884663 38.594315 27.72654 38.285999 27.42L 35.285999 24.42"></path></g></g></g><g id="g-root-1_1hjg8h0pam2a2-stroke" data-item-order="1000000000" data-item-id="1_1hjg8h0pam2a2" data-item-class="Icon Stroke Indexed" data-item-index="6" data-renderer-id="0" transform="translate(542, 110)"><g id="1_1hjg8h0pam2a2-stroke" fill="none" stroke-linecap="round" stroke-linejoin="round" stroke-miterlimit="4" stroke="#F99539" stroke-width="2"><g><path d="M 41 49L 15 49M 28 52.5C 28.276142 52.5 28.5 52.723858 28.5 53L 28.5 53C 28.5 53.276142 28.276142 53.5 28 53.5L 28 53.5C 27.723858 53.5 27.5 53.276142 27.5 53L 27.5 53C 27.5 52.723858 27.723858 52.5 28 52.5M 28 52.5L 28 52.5M 41 41L 41 53C 41 55.209141 39.209137 57 37 57L 19 57C 16.790861 57 15 55.209141 15 53L 15 15C 15 12.790861 16.790861 11 19 11L 30 11M 29 23C 29 29.627417 34.372581 35 41 35C 47.627419 35 53 29.627417 53 23C 53 16.372583 47.627419 11 41 11C 34.372581 11 29 16.372583 29 23ZM 46.348 19.512001L 40.548 27.257999C 40.286514 27.605349 39.887512 27.822548 39.453854 27.853605C 39.020195 27.884663 38.594315 27.72654 38.285999 27.42L 35.285999 24.42"></path></g></g></g><g id="g-root-tx_resethis_18lbbvopa82kk-stroke" data-item-order="1000000000" data-item-id="tx_resethis_18lbbvopa82kk" data-item-class="Label Stroke Indexed" data-item-index="3" data-renderer-id="0" transform="translate(212, 2)"></g><g id="g-root-tx_identify_meuackpa81se-stroke" data-item-order="1000000000" data-item-id="tx_identify_meuackpa81se" data-item-class="Label Stroke Indexed Indexed_1" data-item-index="1" data-renderer-id="0" transform="translate(20, 2)"></g><g id="g-root-tx_executes_vahalgpa80zp-stroke" data-item-order="1000000000" data-item-id="tx_executes_vahalgpa80zp" data-item-class="Label Stroke Indexed" data-item-index="2" data-renderer-id="0" transform="translate(116, 170)"></g><g id="g-root-tx_executes_vahalgpa80zp-stroke" data-item-order="1000000000" data-item-id="tx_executes_vahalgpa80zp" data-item-class="Label Stroke Indexed" data-item-index="2" data-renderer-id="0" transform="translate(116, 170)"></g><g id="g-root-tx_renamebr_1lwru90pa80zn-stroke" data-item-order="1000000000" data-item-id="tx_renamebr_1lwru90pa80zn" data-item-class="Label Stroke Indexed" data-item-index="4" data-renderer-id="0" transform="translate(332, 170)"></g><g id="g-root-tx_identify_meuackpa81se-stroke" data-item-order="1000000000" data-item-id="tx_identify_meuackpa81se" data-item-class="Label Stroke Indexed Indexed_1" data-item-index="1" data-renderer-id="0" transform="translate(20, 2)"></g><g id="g-root-tx_complete_dhybxgpa816p-stroke" data-item-order="1000000000" data-item-id="tx_complete_dhybxgpa816p" data-item-class="Label Stroke Indexed" data-item-index="6" data-renderer-id="0" transform="translate(518, 170)"></g><g id="g-root-tx_complete_dhybxgpa816p-stroke" data-item-order="1000000000" data-item-id="tx_complete_dhybxgpa816p" data-item-class="Label Stroke Indexed" data-item-index="6" data-renderer-id="0" transform="translate(518, 170)"></g><g id="g-root-tx_renamebr_1lwru90pa80zn-stroke" data-item-order="1000000000" data-item-id="tx_renamebr_1lwru90pa80zn" data-item-class="Label Stroke Indexed" data-item-index="4" data-renderer-id="0" transform="translate(332, 170)"></g></g></g></svg>